<?xml version="1.0" encoding="UTF-8" standalone="no"?>
<svg xmlns:dc="http://purl.org/dc/elements/1.1/" xmlns:cc="http://creativecommons.org/ns#" xmlns:rdf="http://www.w3.org/1999/02/22-rdf-syntax-ns#" xmlns:svg="http://www.w3.org/2000/svg" xmlns="http://www.w3.org/2000/svg" xmlns:sodipodi="http://sodipodi.sourceforge.net/DTD/sodipodi-0.dtd" xmlns:inkscape="http://www.inkscape.org/namespaces/inkscape" id="svg8" version="1.1" viewBox="0 0 200 200" height="200cm" width="200cm" sodipodi:docname="tile4_turn_sampled.svg" inkscape:version="0.92.3 (2405546, 2018-03-11)">
  <sodipodi:namedview pagecolor="#ffffff" bordercolor="#666666" borderopacity="1" objecttolerance="10" gridtolerance="10" guidetolerance="10" inkscape:pageopacity="0" inkscape:pageshadow="2" inkscape:window-width="1280" inkscape:window-height="951" id="namedview12" showgrid="false" inkscape:zoom="0.03122" inkscape:cx="3844" inkscape:cy="3780" inkscape:window-x="1920" inkscape:window-y="0" inkscape:window-maximized="1" inkscape:current-layer="svg8" />
  <defs id="defs2" />
  <metadata id="metadata5">
    <rdf:RDF>
      <cc:Work rdf:about="">
        <dc:format>image/svg+xml</dc:format>
        <dc:type rdf:resource="http://purl.org/dc/dcmitype/StillImage" />
        <dc:title />
      </cc:Work>
    </rdf:RDF>
  </metadata>
  <path id="path39" d="M 200.2,2.991 L 180,3.991 L 160.5,6.991 L 141.6,11.99 L 123.5,17.99 L 106.3,26.99 L 89.94,36.99 L 74.75,48 L 60.76,60.99 L 48.06,75.01 L 36.7,90.01 L 26.83,106 L 18.54,123 L 11.91,141 L 7.056,160 L 4.07,180 L 3.053,200 H 7.053 L 8.048,180 L 10.97,161 L 15.73,143 L 22.22,125 L 30.33,108 L 40.01,92 L 51.12,76.99 L 63.59,64 L 77.29,50.99 L 92.14,40.01 L 108.1,30 L 125,21.99 L 142.8,15.99 L 161.2,10.99 L 180.4,7.992 L 200.2,6.991 Z" style="fill:#000000;stroke:none;stroke-width:1.0001;stroke-miterlimit:4;stroke-dasharray:none" />
  <path id="path37" d="M 189.1,48 L 165.1,51.99 L 166,55.99 L 189.3,51.99 Z" style="fill:#000000;stroke:none;stroke-width:1.0001;stroke-miterlimit:4;stroke-dasharray:none" />
  <path id="path35" d="M 142,60.01 L 120.3,70.99 L 122.4,74 L 143.5,63 Z" style="fill:#000000;stroke:none;stroke-width:1.0001;stroke-miterlimit:4;stroke-dasharray:none" />
  <path id="path33" d="M 100.7,85.01 L 83.62,102 L 86.66,105 L 103.3,88 Z" style="fill:#000000;stroke:none;stroke-width:1.0001;stroke-miterlimit:4;stroke-dasharray:none" />
  <path id="path31" d="M 200.2,93 L 189.2,94.01 L 178.6,95.01 L 168.3,98 L 158.5,101 L 149.2,106 L 140.3,111 L 132.1,117 L 124.5,124 L 117.6,132 L 111.4,140 L 106,149 L 101.5,158 L 97.88,168 L 95.23,178 L 93.62,189 L 93.06,200 H 97.06 L 97.59,189 L 99.15,179 L 101.7,169 L 105.1,160 L 109.6,151 L 114.6,142 L 120.7,134 L 127.3,127 L 134.6,121 L 142.6,115 L 151,109 L 160.1,105 L 169.5,102 L 179.4,99.01 L 189.6,98 L 200.2,97 Z" style="fill:#000000;stroke:none;stroke-width:1.0001;stroke-miterlimit:4;stroke-dasharray:none" />
  <path id="path29" d="M 69.51,122 L 58.77,144 L 62.48,145 L 72.95,124 Z" style="fill:#000000;stroke:none;stroke-width:1.0001;stroke-miterlimit:4;stroke-dasharray:none" />
  <path id="rect10" d="M 51.63,167 L 48.32,191 H 52.32 L 55.54,168 Z" style="fill:#000000;stroke:none;stroke-width:1.0001;stroke-miterlimit:4;stroke-dasharray:none" />
</svg>
